<svg width="22" height="16" viewBox="0 0 22 16" fill="none" xmlns="http://www.w3.org/2000/svg">
<path d="M21.8062 1.1052L15.1341 7.73438L21.8062 14.3636C21.9268 14.1115 22 13.8328 22 13.5352V1.93359C22 1.63595 21.9268 1.3573 21.8062 1.1052Z" fill="#20263C"/>
<path d="M20.0664 0H1.93359C1.63595 0 1.3573 0.0731759 1.1052 0.193789L9.63291 8.67853C10.3869 9.43254 11.6131 9.43254 12.3671 8.67853L20.8948 0.193789C20.6427 0.0731759 20.364 0 20.0664 0Z" fill="#20263C"/>
<path d="M0.193789 1.1052C0.0731758 1.3573 0 1.63595 0 1.93359V13.5352C0 13.8328 0.0731758 14.1115 0.193789 14.3636L6.86593 7.73438L0.193789 1.1052Z" fill="#20263C"/>
<path d="M14.2227 8.64579L13.2785 9.58994C12.0221 10.8463 9.97782 10.8463 8.72145 9.58994L7.77734 8.64579L1.1052 15.275C1.3573 15.3956 1.63595 15.4688 1.93359 15.4688H20.0664C20.364 15.4688 20.6427 15.3956 20.8948 15.275L14.2227 8.64579Z" fill="#20263C"/>
</svg>
