<svg width="22" height="22" viewBox="0 0 22 22" fill="none" xmlns="http://www.w3.org/2000/svg">
<path d="M16.7256 14.5534C16.0069 13.8438 15.1096 13.8438 14.3954 14.5534C13.8506 15.0936 13.3058 15.6338 12.7702 16.1832C12.6237 16.3343 12.5001 16.3663 12.3216 16.2656C11.9691 16.0733 11.5937 15.9177 11.2549 15.7071C9.6755 14.7137 8.35246 13.4364 7.1805 11.9989C6.59909 11.2847 6.08178 10.5202 5.72012 9.65956C5.64687 9.48559 5.66061 9.37115 5.80252 9.22923C6.3473 8.70276 6.87835 8.16256 7.41398 7.62235C8.16019 6.87156 8.16019 5.99259 7.4094 5.23722C6.98364 4.80689 6.55789 4.38571 6.13214 3.95538C5.69265 3.5159 5.25774 3.07183 4.81368 2.63692C4.09493 1.93649 3.19765 1.93649 2.48348 2.6415C1.93412 3.1817 1.40765 3.73564 0.849138 4.26669C0.331825 4.75653 0.0708793 5.35625 0.0159434 6.05668C-0.0710384 7.1966 0.208219 8.27243 0.601926 9.32079C1.40765 11.4908 2.63455 13.4181 4.1224 15.1852C6.13214 17.5749 8.53101 19.4656 11.3373 20.8299C12.6008 21.4433 13.9101 21.9148 15.3339 21.9927C16.3136 22.0476 17.1651 21.8004 17.8472 21.0359C18.3142 20.514 18.8406 20.0379 19.3351 19.5389C20.0675 18.7972 20.0721 17.8999 19.3442 17.1675C18.4744 16.2931 17.6 15.4232 16.7256 14.5534Z" fill="#20263C"/>
<path d="M15.646 10.0742C15.7925 10.524 16.229 10.8403 16.6953 10.7607C17.162 10.681 17.4806 10.2358 17.3487 9.78109C16.9946 8.56039 16.3392 7.45485 15.43 6.54195C14.4582 5.57014 13.274 4.89505 11.9677 4.56053C11.5089 4.44302 11.0734 4.77504 11.0077 5.24414C10.9419 5.71321 11.2716 6.14049 11.7263 6.27314C12.664 6.5467 13.5155 7.04921 14.2214 7.75512C14.8787 8.41233 15.3624 9.20301 15.646 10.0742Z" fill="#20263C"/>
<path d="M18.4928 3.56168C16.7461 1.81506 14.5846 0.64495 12.1956 0.146705C11.732 0.0500324 11.2978 0.379978 11.2321 0.848905C11.1664 1.31808 11.4945 1.74827 11.9572 1.85024C13.9758 2.29517 15.8033 3.29802 17.2842 4.77484C18.6786 6.1693 19.6546 7.88459 20.133 9.77461C20.249 10.2329 20.6879 10.5473 21.1539 10.4677C21.6207 10.388 21.9371 9.94365 21.8253 9.48353C21.2809 7.24285 20.1389 5.21187 18.4928 3.56168Z" fill="#20263C"/>
</svg>
