<svg width="133" height="40" viewBox="0 0 133 40" fill="none" xmlns="http://www.w3.org/2000/svg">
<path fill-rule="evenodd" clip-rule="evenodd" d="M23.2408 0.1447C22.9058 0.240771 22.4032 0.474729 22.124 0.664511C21.8448 0.854401 21.478 1.17349 21.3088 1.37368C21.1397 1.57375 20.9252 1.90786 20.8323 2.11608C20.7394 2.32431 20.6181 2.79158 20.5628 3.15442C20.498 3.57934 20.4965 4.06977 20.5584 4.53201C20.6114 4.9268 20.7309 5.42452 20.8241 5.63811C20.9173 5.85158 21.1323 6.24348 21.3017 6.50886C21.4713 6.77423 21.871 7.2638 22.19 7.59673C22.5091 7.92965 23.2187 8.58585 23.767 9.05495C24.3152 9.52404 25.0449 10.2255 25.3885 10.6136C25.8099 11.0898 26.0826 11.515 26.2261 11.9203C26.3612 12.3018 26.439 12.7732 26.439 13.2111C26.439 13.7136 26.3723 14.0545 26.1931 14.4669C26.0579 14.7782 25.818 15.1598 25.6601 15.3148C25.5022 15.4697 25.2587 15.6613 25.1191 15.7404C24.9795 15.8196 24.7054 15.9455 24.51 16.02C24.3145 16.0946 23.7804 16.1564 23.323 16.1572C22.8656 16.1581 22.4631 16.1106 22.4286 16.0516C22.3941 15.9926 22.2824 15.9444 22.1804 15.9444C22.0784 15.9444 21.8854 15.8841 21.7517 15.8104C21.6179 15.7367 21.3927 15.5798 21.2513 15.4619C21.1098 15.3439 20.9056 15.1048 20.7976 14.9306C20.6896 14.7563 20.5447 14.4426 20.4758 14.2337C20.4067 14.0246 20.3496 13.6755 20.3488 13.4578C20.3479 13.2401 20.3049 13.0344 20.2532 13.0007C20.2014 12.9669 20.1289 13.1944 20.0921 13.5062C20.0551 13.8178 20.0176 14.5221 20.0084 15.0711C19.9931 15.9975 20.0088 16.0837 20.2284 16.2722C20.3586 16.3838 20.6327 16.5299 20.8376 16.5968C21.0426 16.6638 21.4615 16.7624 21.7687 16.8159C22.0758 16.8694 22.5932 16.9425 22.9184 16.9783C23.3002 17.0205 23.5503 17.0007 23.624 16.9229C23.6869 16.8565 23.9429 16.8022 24.1929 16.8022C24.5148 16.8022 24.8866 16.6794 25.4671 16.3814C25.9179 16.1499 26.4539 15.776 26.6583 15.5505C26.8626 15.3249 27.1652 14.8732 27.3305 14.5469C27.4958 14.2206 27.6828 13.6995 27.7458 13.389C27.8089 13.0784 27.8597 12.5976 27.8588 12.3204C27.858 12.0431 27.7957 11.5401 27.7204 11.2025C27.6452 10.8649 27.4289 10.3145 27.2398 9.97941C27.0506 9.64435 26.6218 9.07264 26.2867 8.70894C25.9517 8.34524 25.4263 7.83476 25.1191 7.57453C24.812 7.31441 24.5379 7.07445 24.51 7.04132C24.482 7.00819 24.2993 6.86537 24.1038 6.72416C23.9084 6.58284 23.4281 6.14119 23.0364 5.74265C22.6446 5.3441 22.1985 4.76232 22.0448 4.44998C21.8257 4.00447 21.7658 3.73642 21.767 3.20749C21.7681 2.75684 21.8333 2.39925 21.9636 2.12959C22.0708 1.90775 22.3106 1.56807 22.4966 1.37486C22.6825 1.18164 22.9946 0.949937 23.1901 0.85987C23.4086 0.759296 23.8628 0.694427 24.3694 0.691425C24.8226 0.688851 25.4165 0.754256 25.6893 0.836817C26.0104 0.93396 26.3296 1.13832 26.5946 1.41635C26.9058 1.74295 27.0373 1.99342 27.1437 2.46176C27.2207 2.80059 27.3195 3.07775 27.3632 3.07775C27.4069 3.07775 27.4568 2.46841 27.4739 1.72365C27.4933 0.881636 27.4667 0.360002 27.4036 0.344347C27.3477 0.330516 27.0736 0.258891 26.7944 0.185123C26.5152 0.111354 25.7385 0.0327605 25.0684 0.0104583C24.1606 -0.019671 23.6947 0.0145327 23.2408 0.1447ZM59.8602 0.0995595C59.771 0.1937 59.7408 2.07705 59.7408 7.54365C59.7408 12.4567 59.7041 15.0422 59.6292 15.4111C59.5403 15.8487 59.4526 16.0023 59.1977 16.1664C59.0217 16.2798 58.7037 16.3726 58.491 16.3728C58.2591 16.3732 58.1294 16.4162 58.1671 16.4805C58.2058 16.5469 59.0988 16.5877 60.5082 16.5877C61.7614 16.5877 62.7867 16.5456 62.7867 16.4941C62.7867 16.4426 62.5548 16.377 62.2715 16.3483C61.9877 16.3194 61.637 16.202 61.491 16.0869C61.3451 15.9718 61.17 15.6877 61.1019 15.4553C61.0336 15.2222 60.9276 13.76 60.8654 12.1916C60.8035 10.6289 60.7411 8.03548 60.7268 6.42844C60.7097 4.49265 60.7359 3.50675 60.8046 3.50696C60.8617 3.50718 61.43 4.12242 62.0675 4.87404C62.705 5.62578 63.6645 6.74507 64.1997 7.36148C64.7348 7.9778 65.4924 8.84629 65.8833 9.29148C66.2742 9.73656 66.9824 10.535 67.457 11.0657C67.9317 11.5964 69.3323 13.1099 70.5695 14.4289C71.8068 15.7481 72.8616 16.7995 72.9134 16.7656C72.9692 16.7292 73.0365 13.6839 73.0775 9.3527C73.1158 5.30947 73.1752 1.7853 73.2095 1.521C73.2492 1.21499 73.3639 0.943396 73.5257 0.772591C73.7102 0.577662 73.8883 0.504429 74.1778 0.504429C74.4175 0.504429 74.5511 0.461755 74.5134 0.397208C74.4747 0.331159 73.6174 0.289986 72.2797 0.289986C70.9419 0.289986 70.0847 0.331159 70.046 0.397208C70.0072 0.463685 70.1922 0.504429 70.5327 0.504429C70.9343 0.504429 71.1732 0.569299 71.4211 0.745679C71.716 0.955512 71.7756 1.07774 71.879 1.68387C71.9481 2.0896 72.0254 4.21795 72.0637 6.77691C72.1001 9.19476 72.1591 11.7159 72.1948 12.3793C72.2459 13.3255 72.2318 13.5855 72.1295 13.5855C72.0579 13.5855 71.811 13.3805 71.581 13.1298C71.351 12.8791 70.7686 12.2157 70.2868 11.6555C69.8049 11.0953 69.211 10.3965 68.9669 10.1027C68.7228 9.80893 68.1321 9.13343 67.6541 8.60161C67.1762 8.06979 66.5366 7.34626 66.2327 6.99371C65.9289 6.64106 65.566 6.23094 65.4264 6.08222C65.2868 5.9335 64.6244 5.18552 63.9543 4.42007C63.2842 3.6545 62.6902 2.97471 62.6344 2.90942C62.5785 2.84412 62.0531 2.24614 61.4668 1.58051C60.8804 0.914982 60.3779 0.340273 60.35 0.303388C60.322 0.266504 60.2273 0.177188 60.1394 0.10492C60.0169 0.0041319 59.9518 0.00284532 59.8602 0.0995595ZM84.5015 0.252243C84.4373 0.420475 84.3453 0.775165 84.2971 1.04054C84.2488 1.30591 84.1714 1.7763 84.1249 2.08595C84.0784 2.39561 84.0774 2.64887 84.1228 2.64887C84.1682 2.64887 84.2928 2.46798 84.3996 2.24679C84.5065 2.02569 84.6788 1.76429 84.7825 1.66607C84.8861 1.56786 85.1553 1.40992 85.3805 1.31524C85.7172 1.17371 86.1424 1.14819 87.7664 1.17221L89.7428 1.20137V8.33163C89.7428 14.9361 89.7296 15.4873 89.5641 15.8071C89.4657 15.9971 89.2975 16.2021 89.19 16.2628C89.0826 16.3236 88.8775 16.3733 88.7342 16.3733C88.591 16.3733 88.4737 16.4215 88.4737 16.4805C88.4737 16.549 89.3705 16.5877 90.9612 16.5877C92.3293 16.5877 93.4486 16.5453 93.4486 16.4934C93.4486 16.4415 93.1725 16.378 92.835 16.3521C92.3524 16.3153 92.1672 16.2481 91.9682 16.0381C91.7849 15.8445 91.6876 15.5806 91.615 15.0803C91.5549 14.6657 91.526 11.7547 91.5426 7.79552L91.5703 1.20137L93.2723 1.17199C94.5995 1.14905 95.0978 1.18046 95.5354 1.31481C95.844 1.4096 96.2025 1.59177 96.3321 1.71958C96.4616 1.84738 96.6216 2.15704 96.6874 2.40762C96.7533 2.6583 96.8525 2.86331 96.9078 2.86331C96.9703 2.86331 96.9975 2.34693 96.9799 1.49623C96.9527 0.192628 96.942 0.131297 96.7484 0.175687C96.6367 0.201206 94.1478 0.239055 91.2174 0.259749C88.0101 0.282373 85.7067 0.255889 85.43 0.193271C85.1772 0.136015 84.8912 0.0570999 84.7945 0.0178567C84.6639 -0.0350037 84.5881 0.0255763 84.5015 0.252243ZM110.859 0.36354C110.765 0.57348 110.539 1.18561 110.357 1.72386C110.176 2.26212 109.857 3.18498 109.65 3.7747C109.443 4.36442 109.091 5.37766 108.868 6.02636C108.644 6.67505 108.369 7.47117 108.256 7.79552C108.142 8.11986 108.01 8.48174 107.963 8.59968C107.915 8.71763 107.808 9.03125 107.725 9.29662C107.642 9.562 107.44 10.1651 107.275 10.6369C107.111 11.1087 106.905 11.6877 106.819 11.9236C106.732 12.1594 106.472 12.9041 106.241 13.5784C106.01 14.2527 105.751 14.9524 105.664 15.1331C105.578 15.3139 105.387 15.5985 105.24 15.7655C105.093 15.9325 104.818 16.1376 104.63 16.2212C104.442 16.3049 104.11 16.3733 103.894 16.3733C103.677 16.3733 103.5 16.4215 103.5 16.4805C103.5 16.5487 104.312 16.5877 105.734 16.5877C107.155 16.5877 107.967 16.5487 107.967 16.4805C107.967 16.4215 107.819 16.3718 107.637 16.3698C107.456 16.368 107.216 16.2934 107.104 16.2042C106.938 16.0711 106.905 15.9318 106.922 15.4328C106.933 15.0978 106.986 14.726 107.039 14.6067C107.093 14.4873 107.3 13.8589 107.501 13.2102C107.702 12.5615 107.984 11.6694 108.128 11.2278C108.271 10.7862 108.439 10.3614 108.5 10.284C108.586 10.1737 109.101 10.1502 110.885 10.1756C113.035 10.2062 113.167 10.2198 113.28 10.4225C113.345 10.5404 113.429 10.7334 113.466 10.8513C113.502 10.9693 113.67 11.4518 113.838 11.9236C114.007 12.3953 114.333 13.3121 114.563 13.9608C114.793 14.6095 115.02 15.2142 115.066 15.3046C115.112 15.395 115.181 15.6165 115.218 15.7967C115.267 16.0326 115.241 16.1644 115.125 16.2663C114.996 16.3791 114.99 16.426 115.095 16.4961C115.167 16.5447 116.083 16.5851 117.13 16.5861C118.333 16.5871 119.034 16.5483 119.034 16.4805C119.034 16.4215 118.886 16.3722 118.704 16.3709C118.523 16.3696 118.183 16.2768 117.949 16.1647C117.699 16.045 117.391 15.7692 117.203 15.4969C117.027 15.2418 116.78 14.8159 116.654 14.5505C116.528 14.2851 116.218 13.5131 115.965 12.8349C115.713 12.1568 115.358 11.1918 115.177 10.6905C114.997 10.1892 114.789 9.63437 114.716 9.45746C114.643 9.28054 114.507 8.91867 114.413 8.65329C114.32 8.38792 114.206 8.0743 114.161 7.95635C114.116 7.83841 113.979 7.45241 113.856 7.09858C113.734 6.74474 113.596 6.35874 113.551 6.2408C113.506 6.12286 113.324 5.61623 113.145 5.11497C112.967 4.61371 112.783 4.10708 112.735 3.98914C112.688 3.8712 112.558 3.53345 112.448 3.23859C112.338 2.94373 112.133 2.38885 111.993 2.00554C111.853 1.62222 111.643 1.03561 111.525 0.70204C111.407 0.368365 111.247 0.0698589 111.17 0.0386573C111.082 0.00273801 110.967 0.122076 110.859 0.36354ZM8.21443 0.190055C8.10275 0.236696 6.25237 0.279049 4.10248 0.284088C1.76719 0.289557 0.132259 0.335126 0.0412883 0.397208C-0.0680592 0.471834 0.0350947 0.501642 0.406998 0.502821C0.774434 0.504001 1.02328 0.574553 1.263 0.745679C1.4489 0.878312 1.64708 1.13168 1.70333 1.30859C1.76516 1.50277 1.82029 3.92459 1.84253 7.42024C1.87136 11.964 1.84791 13.4976 1.73348 14.5454C1.60028 15.7654 1.56434 15.9017 1.3165 16.1269C1.16634 16.2633 0.911804 16.3733 0.746311 16.3733C0.581934 16.3733 0.447407 16.4215 0.447407 16.4805C0.447407 16.5478 1.09903 16.5878 2.1988 16.5879C3.16201 16.5881 4.93248 16.6188 6.13307 16.6562C8.19291 16.7205 8.32946 16.7126 8.55517 16.5172C8.7436 16.354 8.82381 16.118 8.93387 15.4034C9.01063 14.9049 9.07429 14.3372 9.0754 14.1421C9.07652 13.9469 9.03479 13.8152 8.9826 13.8492C8.93042 13.8833 8.81518 14.1745 8.72665 14.4962C8.63801 14.818 8.45069 15.2026 8.31028 15.3509C8.16986 15.4992 7.93096 15.6498 7.77938 15.6857C7.62779 15.7215 7.34381 15.7941 7.14837 15.8469C6.95292 15.8999 6.40466 15.9413 5.93001 15.939C5.45536 15.9368 4.85339 15.8753 4.59216 15.8025C4.33102 15.7297 4.02227 15.5793 3.90602 15.4682C3.78977 15.357 3.64712 15.093 3.58904 14.8815C3.52345 14.6425 3.49503 13.32 3.51381 11.3875L3.54406 8.27802L4.09425 8.24499C4.39681 8.22676 5.18641 8.26086 5.84889 8.32058C6.78642 8.40508 7.11801 8.47777 7.34534 8.64868C7.54911 8.80201 7.67673 9.03029 7.7674 9.40417C7.83897 9.69881 7.93451 9.93996 7.9798 9.93996C8.02508 9.93996 8.06214 9.53348 8.06214 9.03672C8.06214 8.53996 8.11564 7.8888 8.18103 7.58965C8.24641 7.29061 8.26906 7.01333 8.23139 6.97356C8.19372 6.93367 8.06021 7.00293 7.93482 7.12731C7.79044 7.27056 7.46474 7.39483 7.04684 7.46645C6.68387 7.52864 5.79295 7.57904 5.06701 7.57861C4.34107 7.57818 3.68935 7.53904 3.61869 7.49165C3.51878 7.42474 3.49614 6.70303 3.51716 4.2498L3.54406 1.09415L5.27007 1.11892C6.63798 1.13865 7.07649 1.18164 7.38382 1.32618C7.59703 1.42654 7.83694 1.64216 7.91685 1.80535C7.99675 1.96854 8.06214 2.24636 8.06214 2.42274C8.06214 2.59912 8.10458 2.7711 8.15636 2.80498C8.20814 2.83876 8.27383 2.78129 8.30226 2.67728C8.33058 2.57317 8.3851 2.05379 8.42338 1.52304C8.46155 0.992289 8.53222 0.478374 8.58024 0.381124C8.6372 0.265753 8.6241 0.186945 8.54257 0.154672C8.47374 0.127437 8.32611 0.143413 8.21443 0.190055ZM42.9415 0.26318C40.5102 0.281193 38.947 0.333411 38.8853 0.398494C38.8193 0.468296 38.9324 0.504429 39.2165 0.504429C39.4538 0.504429 39.776 0.574338 39.9324 0.659794C40.0889 0.74525 40.2922 0.936534 40.3843 1.08493C40.5354 1.32843 40.5516 2.01958 40.5501 8.19385C40.5489 13.5367 40.5193 15.1364 40.4148 15.5053C40.3413 15.7651 40.177 16.0666 40.0498 16.1754C39.9226 16.2843 39.6636 16.3733 39.4743 16.3733C39.2851 16.3733 39.1302 16.4137 39.1302 16.4632C39.1302 16.5127 40.9224 16.5862 43.113 16.6267C46.9106 16.697 47.1076 16.691 47.3519 16.4991C47.547 16.3458 47.6253 16.16 47.6809 15.719C47.7211 15.4007 47.7844 14.8387 47.8217 14.4701C47.8694 13.9989 47.8553 13.7999 47.7742 13.7999C47.7107 13.7999 47.6587 13.9177 47.6587 14.0617C47.6587 14.2057 47.613 14.3532 47.5572 14.3897C47.5014 14.4261 47.4557 14.5666 47.4557 14.7018C47.4557 14.837 47.3192 15.0984 47.1524 15.2827C46.9855 15.4671 46.7228 15.6478 46.5686 15.6844C46.4143 15.7208 46.1282 15.7941 45.9327 15.8469C45.7373 15.8999 45.189 15.9413 44.7144 15.939C44.2397 15.9368 43.6329 15.874 43.3658 15.7996C43.0987 15.7253 42.7561 15.5334 42.6043 15.3732L42.3284 15.082L42.2965 11.7106L42.2647 8.33913L42.5373 8.26686C42.6872 8.22719 43.4911 8.24746 44.3238 8.3119C45.5695 8.4084 45.8894 8.46801 46.1289 8.64804C46.3382 8.80555 46.4566 9.02503 46.5507 9.43022L46.6814 9.99357L46.8612 8.55529C46.96 7.76421 47.0152 7.07306 46.9838 7.01934C46.9523 6.96562 46.8263 7.02116 46.7035 7.14286C46.5809 7.26456 46.2368 7.41295 45.9389 7.47257C45.6411 7.53229 44.7525 7.58032 43.9645 7.57947C43.1763 7.5785 42.4737 7.53904 42.403 7.49165C42.3031 7.42474 42.2805 6.70303 42.3015 4.2498L42.3284 1.09415L44.0865 1.12192C45.4555 1.14347 45.9162 1.18754 46.1679 1.32114C46.3456 1.41539 46.57 1.59595 46.6666 1.72226C46.7717 1.85993 46.8428 2.13978 46.8443 2.4207C46.8461 2.80327 46.8719 2.86739 46.9843 2.76874C47.067 2.69637 47.1464 2.31573 47.1828 1.81747C47.2161 1.3607 47.2742 0.806045 47.312 0.584846C47.3764 0.208283 47.3654 0.184372 47.139 0.208282C47.006 0.222329 45.1171 0.24699 42.9415 0.26318ZM127.867 0.397208C127.867 0.45618 128.046 0.504429 128.266 0.504429C128.572 0.504429 128.733 0.577983 128.965 0.822128L129.265 1.13972L129.342 4.01198C129.384 5.59168 129.385 8.8049 129.346 11.1526C129.291 14.3615 129.239 15.5076 129.135 15.7695C129.059 15.9611 128.878 16.1753 128.732 16.2456C128.586 16.3158 128.355 16.3733 128.218 16.3733C128.081 16.3733 127.969 16.4215 127.969 16.4805C127.969 16.549 128.864 16.5877 130.45 16.5877C131.995 16.5877 132.955 16.5473 132.994 16.4805C133.033 16.4147 132.869 16.3732 132.569 16.3731C132.3 16.3731 131.924 16.2886 131.733 16.1854C131.493 16.0561 131.338 15.865 131.232 15.5691C131.102 15.2042 131.078 14.1244 131.072 8.33163C131.067 2.84133 131.092 1.45656 131.203 1.17982C131.278 0.991003 131.448 0.76187 131.58 0.670517C131.712 0.579163 131.958 0.504429 132.128 0.504429C132.297 0.504429 132.436 0.45618 132.436 0.397208C132.436 0.328907 131.607 0.289986 130.152 0.289986C128.696 0.289986 127.867 0.328907 127.867 0.397208ZM111.385 4.68608C111.629 5.42323 111.939 6.36411 112.074 6.77691C112.21 7.18971 112.437 7.865 112.58 8.27759C112.724 8.69007 112.841 9.13644 112.841 9.26939V9.51107H110.872C109.37 9.51107 108.891 9.47869 108.853 9.37436C108.826 9.2992 108.918 8.85283 109.057 8.38256C109.196 7.91228 109.345 7.43096 109.388 7.31302C109.431 7.19508 109.568 6.7367 109.693 6.29441C109.818 5.85212 109.958 5.39375 110.005 5.2758C110.051 5.15786 110.189 4.72361 110.311 4.31081C110.433 3.898 110.549 3.49635 110.57 3.41829C110.59 3.34023 110.682 3.29198 110.774 3.31107C110.889 3.33477 111.084 3.77352 111.385 4.68608Z" fill="#131930"/>
<path fill-rule="evenodd" clip-rule="evenodd" d="M0.535022 24.0939C0.479433 24.1645 0.336263 24.6312 0.216884 25.1308C0.0975048 25.6304 -0.000101176 26.1414 7.87083e-08 26.2663C7.87083e-08 26.3912 0.0343182 26.4934 0.0762375 26.4934C0.118056 26.4934 0.260219 26.2907 0.392052 26.0429C0.523885 25.7951 0.72893 25.5316 0.847499 25.4573C0.966169 25.383 1.24553 25.2655 1.46829 25.1963C1.74846 25.1093 2.46615 25.0797 3.79714 25.1006L5.72097 25.1308V31.7454C5.72097 37.9649 5.70973 38.3848 5.53365 38.774C5.43058 39.0018 5.23485 39.2386 5.09856 39.3005C4.96228 39.3624 4.73901 39.4131 4.60241 39.4131C4.46582 39.4131 4.35404 39.4585 4.35404 39.514C4.35404 39.5785 5.24842 39.6149 6.83477 39.6149C8.42112 39.6149 9.3155 39.5785 9.3155 39.514C9.3155 39.4585 9.1219 39.413 8.88517 39.4129C8.64844 39.4129 8.29911 39.3333 8.10876 39.2362C7.85005 39.1043 7.72399 38.9452 7.60927 38.6056C7.47875 38.2193 7.45475 37.1784 7.44908 31.6411L7.4423 25.1308L9.11299 25.1013C10.1735 25.0825 10.9501 25.1155 11.2393 25.1915C11.4899 25.2575 11.8582 25.3997 12.0576 25.5077C12.2831 25.6297 12.465 25.8273 12.5385 26.0301C12.6036 26.2096 12.6569 26.4326 12.6569 26.5258C12.6569 26.619 12.6955 26.6953 12.7427 26.6953C12.7898 26.6953 12.8565 26.1404 12.8907 25.4624C12.9334 24.6152 12.9181 24.2081 12.842 24.1611C12.7809 24.1236 12.5894 24.1333 12.4162 24.1828C12.243 24.2324 9.77722 24.2717 6.93673 24.2704C4.09614 24.2691 1.61257 24.2306 1.41766 24.1851C1.22275 24.1395 0.967179 24.0714 0.849724 24.0338C0.721941 23.9929 0.595572 24.0171 0.535022 24.0939ZM27.6932 24.1563C27.2477 24.2576 26.5785 24.4801 26.206 24.6507C25.8335 24.8214 25.3095 25.1077 25.0416 25.2868C24.7736 25.4661 24.2632 25.9106 23.9074 26.2749C23.5517 26.639 23.1136 27.1664 22.934 27.4469C22.7545 27.7274 22.4862 28.2222 22.3377 28.5465C22.1893 28.8707 21.9696 29.4839 21.8495 29.9091C21.6755 30.5247 21.6317 30.9495 21.6342 31.9944C21.6364 32.9051 21.692 33.5227 21.8162 34.013C21.9145 34.4016 22.0582 34.8673 22.1355 35.0476C22.2128 35.228 22.3456 35.5233 22.4307 35.7037C22.5157 35.8841 22.6687 36.178 22.7707 36.3567C22.8727 36.5353 23.0869 36.8533 23.2469 37.0632C23.4069 37.2731 23.6754 37.5825 23.8436 37.7508C24.0117 37.919 24.3999 38.2442 24.7062 38.4736C25.0125 38.7028 25.5137 39.0028 25.82 39.14C26.1263 39.2774 26.5136 39.4352 26.6806 39.4906C26.8477 39.5461 27.1666 39.6399 27.3894 39.699C27.6122 39.7581 28.045 39.8398 28.3513 39.8807C28.6576 39.9215 29.2044 39.9505 29.5664 39.9453C29.9284 39.94 30.5207 39.8946 30.8827 39.8445C31.2447 39.7943 31.9007 39.6262 32.3405 39.4709C32.7804 39.3157 33.4639 38.992 33.8594 38.7516C34.2549 38.5112 34.8673 38.0307 35.2205 37.6836C35.5736 37.3366 36.0552 36.7548 36.2906 36.3908C36.526 36.0268 36.818 35.5136 36.9395 35.2506C37.061 34.9875 37.1605 34.7063 37.1605 34.6257C37.1605 34.5451 37.201 34.4542 37.2506 34.4237C37.3001 34.3932 37.3708 34.1975 37.4075 33.9887C37.4444 33.7801 37.525 33.1433 37.5866 32.5737C37.6673 31.8289 37.6683 31.2763 37.5905 30.6055C37.5309 30.0925 37.452 29.5366 37.4149 29.37C37.3779 29.2035 37.3101 28.9764 37.2641 28.8654C37.2183 28.7543 37.0804 28.4385 36.9578 28.1636C36.8353 27.8886 36.5633 27.4117 36.3532 27.1038C36.1432 26.7958 35.7419 26.3303 35.4615 26.0692C35.1811 25.8082 34.7083 25.4422 34.4108 25.2558C34.1132 25.0695 33.528 24.7781 33.1103 24.6082C32.6926 24.4385 32.1231 24.2431 31.8446 24.1741C31.5662 24.1052 30.7004 24.0315 29.9208 24.0104C28.806 23.9803 28.3302 24.0115 27.6932 24.1563ZM86.0663 24.1719C85.975 24.2307 84.3312 24.2703 81.9402 24.2713C79.3592 24.2723 77.966 24.3083 77.966 24.3738C77.966 24.4293 78.1431 24.4747 78.3595 24.4747C78.5758 24.4747 78.876 24.5384 79.0263 24.6161C79.1768 24.6939 79.3756 24.8643 79.4683 24.9946C79.6211 25.2098 79.6367 25.8334 79.6367 31.742C79.6367 37.1231 79.6115 38.3279 79.4916 38.6883C79.3954 38.9774 79.2522 39.1727 79.0663 39.2686C78.9122 39.3481 78.6699 39.4131 78.528 39.4131C78.3859 39.4131 78.2697 39.4512 78.2697 39.4977C78.2697 39.5444 80.0182 39.6135 82.1553 39.6515C84.5344 39.6938 86.1385 39.6836 86.2928 39.625C86.4315 39.5724 86.5753 39.4238 86.6125 39.2947C86.6497 39.1655 86.747 38.6322 86.8289 38.1097C86.9107 37.5872 86.9776 37.1444 86.9776 37.1256C86.9776 37.1069 86.9093 37.0916 86.8257 37.0916C86.7306 37.0916 86.6739 37.1873 86.6739 37.3479C86.6739 37.4889 86.5837 37.7803 86.4737 37.9955C86.3635 38.2106 86.1471 38.4748 85.9927 38.5823C85.8383 38.6899 85.5297 38.8174 85.3069 38.8657C85.0842 38.914 84.3779 38.9521 83.7375 38.9503C82.9834 38.9482 82.4321 38.8958 82.1732 38.8015C81.9085 38.7052 81.7032 38.5366 81.5657 38.3028C81.3719 37.973 81.3557 37.7568 81.3236 35.058C81.2996 33.0475 81.3239 32.1018 81.4031 31.9543C81.4986 31.7764 81.6107 31.7421 82.0956 31.7429C82.4139 31.7433 83.188 31.789 83.8158 31.8445C84.4437 31.8999 85.0447 31.9995 85.1514 32.0659C85.258 32.1323 85.3904 32.2797 85.4454 32.3933C85.5004 32.507 85.5748 32.7762 85.6105 32.9916C85.6518 33.2407 85.7107 33.3481 85.7722 33.2868C85.8254 33.2337 85.9107 32.6043 85.9615 31.8882C86.0125 31.1719 86.0339 30.5658 86.0092 30.5412C85.9845 30.5165 85.8561 30.5976 85.724 30.7214C85.5622 30.8729 85.2731 30.9767 84.8384 31.0393C84.4835 31.0905 83.591 31.1333 82.855 31.1344C81.6346 31.1362 81.5078 31.1192 81.4122 30.9412C81.3474 30.8204 81.3074 29.7068 81.3074 28.0224C81.3074 26.5243 81.335 25.2269 81.3688 25.1391C81.4194 25.0078 81.6044 24.981 82.4067 24.9882C82.9437 24.993 83.7785 25.0271 84.2618 25.064C84.9221 25.1143 85.211 25.1835 85.4245 25.3424C85.5971 25.4708 85.7589 25.7284 85.8368 25.9984C85.9073 26.2429 85.9948 26.5111 86.0312 26.5943C86.0677 26.6776 86.1562 26.2915 86.2281 25.7364C86.3001 25.1812 86.3614 24.5794 86.3645 24.399C86.3676 24.2185 86.3359 24.0717 86.2942 24.0725C86.2524 24.0734 86.1499 24.1181 86.0663 24.1719ZM45.9696 24.3738C45.9696 24.4293 46.1752 24.4747 46.4267 24.4747C46.678 24.4747 46.9856 24.5315 47.1101 24.6009C47.2347 24.6703 47.4195 24.7938 47.5209 24.8753C47.6223 24.9569 47.816 25.2648 47.9512 25.5597C48.0865 25.8545 48.1972 26.1824 48.1972 26.2886C48.1972 26.3947 48.2427 26.5095 48.2984 26.5439C48.3541 26.5782 48.3997 26.7178 48.3997 26.854C48.3997 26.9903 48.4414 27.1807 48.4923 27.2771C48.5434 27.3735 48.6826 27.7929 48.8017 28.2093C48.9208 28.6256 49.1557 29.4205 49.3235 29.9757C49.4913 30.5308 49.6677 31.0986 49.7154 31.2373C49.7632 31.3761 49.9005 31.8303 50.0207 32.2467C50.1409 32.663 50.3429 33.3444 50.4694 33.7607C50.5961 34.1771 50.8013 34.8584 50.9256 35.2747C51.0498 35.6911 51.192 36.168 51.2415 36.3346C51.2911 36.5011 51.4177 36.9099 51.5228 37.243C51.628 37.576 51.7701 38.053 51.8387 38.3028C51.9073 38.5526 52.0044 38.8358 52.0547 38.9322C52.105 39.0286 52.1471 39.1876 52.1483 39.2855C52.1495 39.3834 52.2388 39.5771 52.3464 39.7159C52.5418 39.9677 52.5425 39.9678 52.7342 39.7663C52.8398 39.6553 53.0277 39.2919 53.1518 38.9589C53.2758 38.6258 53.4193 38.2744 53.4705 38.178C53.5218 38.0816 53.5637 37.9545 53.5637 37.8955C53.5637 37.8366 53.6548 37.6004 53.7662 37.3705C53.8776 37.1407 53.9687 36.9016 53.9687 36.8392C53.9687 36.7768 54.0598 36.5377 54.1712 36.3079C54.2826 36.0781 54.3737 35.8419 54.3737 35.7829C54.3737 35.724 54.4169 35.5968 54.4697 35.5004C54.5225 35.404 54.7219 34.8937 54.9127 34.3663C55.1036 33.8389 55.6786 32.2946 56.1905 30.9345C56.7025 29.5744 57.1814 28.3027 57.2548 28.1084C57.3282 27.9141 57.4543 27.7419 57.535 27.7257C57.6308 27.7064 57.738 27.8638 57.8443 28.1799C57.9338 28.4459 58.2088 29.2313 58.4555 29.9252C58.7021 30.6191 58.9293 31.255 58.9603 31.3383C58.9914 31.4215 59.1133 31.7849 59.2314 32.1458C59.3495 32.5066 59.4894 32.8807 59.5425 32.9771C59.5955 33.0734 59.6389 33.2411 59.6389 33.3496C59.6389 33.4581 59.6755 33.5694 59.7201 33.597C59.7648 33.6244 59.8649 33.8798 59.9427 34.1645C60.0205 34.4491 60.1206 34.7045 60.1653 34.7319C60.2099 34.7595 60.2465 34.8708 60.2465 34.9793C60.2465 35.0878 60.2879 35.2555 60.3386 35.3518C60.3892 35.4482 60.5259 35.7716 60.6424 36.0704C60.7587 36.3693 60.854 36.6765 60.854 36.7531C60.854 36.8297 60.8954 36.9713 60.9461 37.0677C60.9968 37.1641 61.1334 37.4875 61.2499 37.7863C61.3662 38.0852 61.4615 38.4054 61.4615 38.4979C61.4615 38.5904 61.5016 38.7093 61.5505 38.762C61.5995 38.8148 61.6926 39.0236 61.7575 39.226C61.8223 39.4285 61.9548 39.6855 62.0519 39.7971L62.2284 40L62.397 39.7929C62.4898 39.6789 62.5942 39.4566 62.6289 39.2987C62.6637 39.1408 62.7342 38.9857 62.7856 38.954C62.8371 38.9224 62.8791 38.7947 62.8791 38.6703C62.8791 38.5458 62.9178 38.401 62.9651 38.3482C63.0122 38.2955 63.4948 36.8897 64.0373 35.2243C64.5799 33.5588 65.0598 32.1054 65.1038 31.9944C65.1478 31.8833 65.2885 31.4518 65.4166 31.0355C65.5447 30.6191 65.6868 30.2353 65.7324 30.1826C65.7781 30.1298 65.8155 29.9686 65.8155 29.8243C65.8155 29.6799 65.8528 29.5187 65.8985 29.4659C65.9442 29.4132 66.0862 29.0294 66.2143 28.613C66.3424 28.1967 66.4842 27.7652 66.5296 27.6542C66.5751 27.5431 66.7127 27.157 66.8354 26.7962C66.9582 26.4354 67.1587 25.9129 67.281 25.6353C67.4033 25.3576 67.672 24.9829 67.878 24.8025C68.1679 24.5489 68.3448 24.4747 68.6601 24.4747C68.9059 24.4747 69.0427 24.4346 69.005 24.3738C68.9666 24.3118 68.1433 24.2728 66.8727 24.2728C65.5603 24.2728 64.8029 24.3098 64.8029 24.3738C64.8029 24.4293 64.9654 24.4747 65.164 24.4747C65.3625 24.4747 65.6121 24.5211 65.7186 24.578C65.825 24.6348 65.9579 24.7666 66.014 24.8711C66.0826 24.9988 66.0819 25.254 66.0117 25.651C65.9544 25.9755 65.8438 26.4455 65.766 26.6953C65.6883 26.9451 65.5277 27.4901 65.4093 27.9065C65.291 28.3228 65.1564 28.7771 65.1103 28.9158C65.0641 29.0546 64.9285 29.5088 64.8088 29.9252C64.6891 30.3415 64.5477 30.761 64.4945 30.8574C64.4413 30.9538 64.3979 31.1442 64.3979 31.2804C64.3979 31.4167 64.3523 31.5563 64.2966 31.5906C64.241 31.6249 64.1954 31.7298 64.1954 31.8237C64.1954 31.9175 64.0582 32.4258 63.8905 32.9532C63.7229 33.4806 63.4897 34.2301 63.3722 34.6187C63.2548 35.0073 63.1221 35.416 63.0774 35.5271C63.0327 35.6381 62.9694 35.8519 62.9368 36.0021C62.9042 36.1523 62.8293 36.4016 62.7703 36.556L62.6632 36.8369L62.4696 36.5857C62.3632 36.4476 62.275 36.235 62.2738 36.1134C62.2726 35.9918 62.235 35.8697 62.1903 35.8422C62.1457 35.8147 62.0456 35.5594 61.9678 35.2747C61.89 34.9901 61.7899 34.7347 61.7452 34.7073C61.7006 34.6797 61.664 34.5684 61.664 34.4599C61.664 34.3514 61.6206 34.1837 61.5675 34.0873C61.5145 33.9909 61.3748 33.6169 61.2572 33.256C61.1395 32.8952 61.0025 32.5091 60.9528 32.3981C60.9031 32.2871 60.7492 31.8556 60.6107 31.4392C60.4722 31.0229 60.1473 30.0917 59.8884 29.37C59.6297 28.6484 59.3811 27.9443 59.3359 27.8056C59.2906 27.6668 59.0429 26.9627 58.7852 26.2411C58.5275 25.5194 58.2613 24.8041 58.1936 24.6513C58.126 24.4986 58.0112 24.3738 57.9384 24.3738C57.8656 24.3738 57.738 24.5441 57.6548 24.7523C57.5716 24.9605 57.463 25.2216 57.4135 25.3326C57.364 25.4437 57.2239 25.8298 57.1024 26.1906C56.9809 26.5514 56.8412 26.8898 56.7921 26.9426C56.7429 26.9952 56.7026 27.1208 56.7026 27.2215C56.7026 27.3222 56.6607 27.4835 56.6094 27.5799C56.5582 27.6763 56.417 28.0276 56.2957 28.3607C56.1745 28.6938 56.0387 29.0571 55.9941 29.1682C55.9495 29.2792 55.8582 29.529 55.7913 29.7233C55.7243 29.9176 55.6287 30.1788 55.5785 30.3037C55.5285 30.4285 55.4465 30.633 55.3965 30.7579C55.3464 30.8828 55.2507 31.144 55.1838 31.3383C55.1168 31.5326 55.0242 31.7824 54.9779 31.8934C54.9315 32.0044 54.59 32.9129 54.2188 33.9121C53.8475 34.9114 53.4539 35.9675 53.344 36.2588C53.234 36.5502 53.111 36.7888 53.0704 36.7888C53.0299 36.7888 52.9421 36.638 52.8752 36.4536C52.8083 36.2691 52.7536 36.0269 52.7536 35.9153C52.7536 35.8035 52.7218 35.6804 52.6831 35.6417C52.6442 35.603 52.5348 35.2889 52.4402 34.9436C52.3454 34.5984 52.1776 33.9979 52.0673 33.6093C51.957 33.2207 51.699 32.3123 51.4939 31.5906C51.2889 30.8689 51.0526 30.0286 50.9688 29.7233C50.8851 29.418 50.7469 28.9184 50.6615 28.613C50.5762 28.3077 50.4675 27.8989 50.4199 27.7046C50.3723 27.5103 50.2812 27.1242 50.2173 26.8467C50.1534 26.5691 50.0572 26.1603 50.0036 25.9383C49.9499 25.7162 49.8805 25.407 49.8493 25.2513C49.8075 25.0426 49.8537 24.9033 50.0251 24.7214C50.1931 24.5431 50.365 24.4747 50.6449 24.4747C50.858 24.4747 51.0323 24.4293 51.0323 24.3738C51.0323 24.3092 50.121 24.2728 48.5009 24.2728C46.8809 24.2728 45.9696 24.3092 45.9696 24.3738ZM97.7106 24.3738C97.7106 24.4293 97.8951 24.4747 98.1207 24.4747C98.3462 24.4747 98.6553 24.539 98.8077 24.6175C98.9601 24.6961 99.1514 24.8847 99.2329 25.0367C99.3588 25.2712 99.3813 26.2945 99.3813 31.7827C99.3813 37.1284 99.3561 38.328 99.2362 38.6883C99.14 38.9774 98.9968 39.1727 98.8109 39.2686C98.6568 39.3481 98.4118 39.4131 98.2666 39.4131C98.1162 39.4131 98.0293 39.4566 98.065 39.514C98.1039 39.5767 99.026 39.6149 100.495 39.6149C101.964 39.6149 102.886 39.5767 102.925 39.514C102.963 39.4523 102.807 39.4131 102.523 39.4131C102.267 39.4131 101.911 39.352 101.732 39.2773C101.553 39.2026 101.352 39.0322 101.286 38.8988C101.219 38.7653 101.117 37.85 101.058 36.8649C100.999 35.8796 100.951 34.6738 100.951 34.185C100.951 33.6285 100.996 33.2512 101.072 33.1753C101.152 33.0963 101.569 33.0542 102.275 33.0542C102.869 33.0542 103.492 33.0814 103.659 33.1146C103.864 33.1555 104.075 33.3272 104.312 33.6445C104.504 33.9027 104.877 34.4092 105.14 34.7701C105.404 35.1309 105.674 35.4943 105.741 35.5775C105.808 35.6608 106.043 35.9788 106.263 36.2841C106.484 36.5894 106.846 37.0663 107.069 37.3439C107.291 37.6215 107.726 38.1133 108.034 38.437C108.343 38.7606 108.823 39.1452 109.102 39.2914C109.579 39.5421 109.706 39.5597 111.304 39.5964C112.494 39.6237 113 39.6021 113 39.5242C113 39.46 112.81 39.4131 112.549 39.4131C112.301 39.4131 111.971 39.362 111.815 39.2996C111.659 39.2372 111.286 39.067 110.986 38.9211C110.673 38.7695 110.135 38.3537 109.728 37.9495C109.337 37.5609 108.384 36.4481 107.61 35.4766C106.836 34.5051 106.148 33.6421 106.081 33.5588C106.014 33.4756 105.835 33.2442 105.683 33.0447C105.53 32.8451 105.406 32.6536 105.406 32.619C105.406 32.5845 105.554 32.4067 105.735 32.2238C105.916 32.041 106.253 31.6642 106.484 31.3864C106.715 31.1086 107.04 30.6095 107.206 30.2771C107.373 29.9448 107.569 29.4912 107.641 29.2691C107.714 29.0471 107.776 28.4566 107.778 27.957C107.782 27.1844 107.744 26.9655 107.522 26.4934C107.378 26.1881 107.062 25.7415 106.819 25.5011C106.577 25.2607 106.203 24.975 105.99 24.8663C105.776 24.7576 105.318 24.5802 104.972 24.4721C104.402 24.2941 104.028 24.2754 101.027 24.2741C98.8826 24.2733 97.7106 24.3085 97.7106 24.3738ZM31.0786 24.7931C31.2772 24.8569 31.6674 25.0104 31.9459 25.1341C32.2243 25.2579 32.737 25.5688 33.0851 25.8252C33.4332 26.0816 33.9294 26.5753 34.1877 26.9223C34.4461 27.2693 34.793 27.8392 34.9588 28.1887C35.1244 28.5381 35.3024 28.9923 35.3543 29.1981C35.406 29.4037 35.5147 29.8671 35.5957 30.228C35.6829 30.6162 35.7429 31.4148 35.7429 32.1845C35.7429 32.8998 35.6899 33.7855 35.6253 34.1528C35.5606 34.52 35.4695 34.8637 35.4228 34.9164C35.376 34.9692 35.3379 35.1146 35.3379 35.2395C35.3379 35.3645 35.1673 35.7983 34.9588 36.2034C34.7073 36.6921 34.3407 37.1781 33.8703 37.6467C33.4736 38.0418 32.9377 38.4586 32.6546 38.5923C32.3762 38.7238 32.0572 38.8683 31.9459 38.9134C31.8345 38.9587 31.5839 39.026 31.389 39.063C31.194 39.1002 30.6701 39.1529 30.2245 39.1801C29.7696 39.208 29.1704 39.1768 28.8576 39.1089C28.5513 39.0425 28.2096 38.9552 28.0982 38.9148C27.9868 38.8745 27.5871 38.6896 27.2098 38.5039C26.8326 38.3183 26.2505 37.9196 25.9163 37.6181C25.582 37.3166 25.1765 36.8787 25.0152 36.6449C24.8539 36.4113 24.5853 35.9506 24.4183 35.6212C24.2513 35.2919 24.0257 34.7272 23.917 34.3663C23.8083 34.0055 23.6636 33.415 23.5957 33.0542C23.5278 32.6933 23.4479 32.0796 23.4182 31.6903C23.3837 31.2374 23.425 30.656 23.5329 30.0754C23.6258 29.5765 23.7497 28.9865 23.8084 28.7644C23.8671 28.5424 24.0816 28.02 24.2852 27.6037C24.5446 27.0732 24.8544 26.6504 25.3208 26.1906C25.7409 25.7764 26.2262 25.4194 26.6372 25.2222C26.9952 25.0505 27.5388 24.8577 27.8451 24.7937C28.1513 24.7296 28.5159 24.6576 28.6551 24.6335C28.7943 24.6095 29.3154 24.6095 29.8129 24.6334C30.3106 24.6574 30.8802 24.7293 31.0786 24.7931ZM103.786 25.0099C103.981 25.0804 104.277 25.2122 104.444 25.3028C104.611 25.3933 104.914 25.6415 105.117 25.8543C105.32 26.067 105.58 26.4291 105.695 26.659C105.811 26.889 105.983 27.4743 106.079 27.9599C106.227 28.7111 106.236 28.9629 106.135 29.6479C106.071 30.0907 105.91 30.6862 105.779 30.9713C105.647 31.2564 105.416 31.6347 105.266 31.8121C105.106 32.001 104.762 32.2202 104.436 32.342C104.116 32.4612 103.637 32.5495 103.309 32.5495C102.996 32.5495 102.443 32.498 102.08 32.435C101.634 32.3576 101.345 32.245 101.186 32.0864L100.951 31.8521V28.5498C100.951 25.6187 100.97 25.2269 101.118 25.0631C101.261 24.9061 101.447 24.8786 102.359 24.88C102.969 24.8809 103.584 24.9368 103.786 25.0099Z" fill="#131930"/>
</svg>
