<svg width="20" height="93" viewBox="0 0 20 93" fill="none" xmlns="http://www.w3.org/2000/svg">
<path fill-rule="evenodd" clip-rule="evenodd" d="M19.564 0.0317148C19.5428 0.0490959 19.0045 0.176124 18.3678 0.313875C17.7312 0.451682 16.8703 0.638867 16.4549 0.729892C16.0394 0.820917 15.514 0.935812 15.2874 0.985303C15.0607 1.03474 14.8444 1.08524 14.8066 1.09749C14.7689 1.10974 15.92 1.12176 17.3648 1.12418L19.9917 1.12864V0.56432V0H19.7971C19.6901 0 19.5852 0.0142773 19.564 0.0317148ZM11.9909 1.69076C11.9153 1.71644 11.7145 1.76813 11.5445 1.80571C11.3745 1.8433 11.1644 1.89674 11.0777 1.92456C10.991 1.95238 10.8349 1.97512 10.7309 1.97512C10.6269 1.97512 10.5125 1.99589 10.4766 2.02123C10.4407 2.04662 10.2414 2.09978 10.0336 2.1394C9.82587 2.17895 9.56318 2.23268 9.44987 2.25869C9.33655 2.28476 9.12022 2.33267 8.96913 2.36518C8.81805 2.39768 8.4781 2.47296 8.21369 2.5325C7.94929 2.59204 7.64608 2.65693 7.53991 2.67668C7.37103 2.70812 7.34954 2.73532 7.36822 2.89406L7.38958 3.07555L10.377 3.10974C12.0201 3.12854 14.8067 3.14761 16.5694 3.15207C18.3322 3.15653 19.8233 3.14479 19.883 3.12594C19.9743 3.09716 19.9917 2.97549 19.9917 2.36411V1.63653L16.06 1.64037C13.8975 1.64245 12.0664 1.66514 11.9909 1.69076ZM7.51574 3.7564C7.493 3.80499 7.49623 4.1161 7.52281 4.44769C7.54946 4.77934 7.59265 5.0689 7.61889 5.09113C7.64512 5.11336 10.356 5.1492 13.643 5.17075C16.93 5.19231 19.7032 5.19265 19.8056 5.17154L19.9917 5.13317V4.43488C19.9917 3.85019 19.974 3.731 19.883 3.70234C19.8233 3.68349 17.0255 3.66808 13.6657 3.66808C8.18561 3.66808 7.55268 3.67717 7.51574 3.7564ZM7.62988 5.82661C7.62981 5.89647 7.66572 6.2266 7.70975 6.56022L7.78969 7.16687H13.8907H19.9917V6.43325V5.69964H13.8108H7.62994L7.62988 5.82661ZM7.79243 7.81516C7.77073 7.86172 7.78742 8.10945 7.82952 8.36571C7.87162 8.62197 7.91351 8.8951 7.92251 8.97269L7.93899 9.11377H13.9482H19.9574V8.43659V7.75941L13.8947 7.74501C8.55982 7.73232 7.82718 7.74073 7.79243 7.81516ZM7.99901 9.78915C7.97772 9.83469 7.98644 10.1458 8.01831 10.4804L8.07634 11.0889L13.9482 11.1171C17.1777 11.1326 19.8587 11.1362 19.9058 11.1252C19.9683 11.1105 19.9917 10.9237 19.9917 10.4399C19.9917 9.88548 19.9736 9.76912 19.883 9.74056C19.8233 9.72172 17.1337 9.70631 13.9061 9.70631C8.81035 9.70631 8.03259 9.7172 7.99901 9.78915ZM8.1729 11.8084C8.16933 11.8472 8.17098 12.1202 8.17647 12.415C8.18196 12.7099 8.2025 12.9957 8.222 13.0502C8.25559 13.1439 8.5796 13.1485 14.1074 13.1349L19.9574 13.1204L19.9769 12.476C19.9913 11.9984 19.9736 11.8197 19.9082 11.7856C19.8597 11.7603 17.2009 11.7392 13.9997 11.7387C9.39204 11.738 8.17798 11.7525 8.1729 11.8084ZM8.36286 13.8067C8.33752 13.8276 8.31671 13.9764 8.31671 14.1374C8.31671 14.2984 8.33656 14.5862 8.3608 14.7769L8.40496 15.1238H14.2005H19.996L19.9767 14.4607L19.9574 13.7976L14.1832 13.7832C11.0074 13.7753 8.38827 13.7858 8.36286 13.8067ZM8.49588 15.8475C8.47638 15.8734 8.47913 16.1656 8.50193 16.4967L8.54341 17.0989H14.2698H19.9962L19.9768 16.464L19.9574 15.8292L14.2444 15.8147C11.1022 15.8068 8.51539 15.8215 8.49588 15.8475ZM8.63647 18.3545C8.66043 18.6416 8.70569 18.9336 8.73701 19.0035L8.79401 19.1305H14.2842C17.3038 19.1305 19.8233 19.1151 19.883 19.0962C19.9729 19.0679 19.9917 18.9557 19.9917 18.4472V17.8325H14.2923H8.59292L8.63647 18.3545ZM8.81427 20.3861C8.83343 20.7042 8.87182 21.0091 8.8995 21.0636C8.94695 21.1571 9.26019 21.1618 14.4536 21.1482L19.9574 21.1338L19.9767 20.4707L19.996 19.8076H14.3878H8.77945L8.81427 20.3861ZM8.96556 22.3612C8.99035 22.6173 9.02696 22.8967 9.04694 22.9823L9.08327 23.1378L14.5203 23.1234L19.9574 23.1089L19.9769 22.5023L19.9964 21.8956H14.4584H8.92051L8.96556 22.3612ZM6.70281 23.0261C6.5895 23.0515 6.28045 23.115 6.01605 23.1673C5.75165 23.2195 5.47351 23.2823 5.39796 23.3067C5.32242 23.331 4.87431 23.4322 4.40215 23.5314C3.93001 23.6307 3.46644 23.7329 3.37201 23.7587C3.27236 23.7858 4.01578 23.8073 5.14345 23.8099L7.08658 23.8143L7.06639 23.4097C7.05526 23.1871 7.01529 22.9994 6.97752 22.9926C6.93975 22.9857 6.81613 23.0007 6.70281 23.0261ZM9.14083 24.0594C9.14083 24.1635 9.16081 24.4432 9.18526 24.6808L9.22969 25.1129L14.5935 25.0985L19.9574 25.084V24.4915V23.899L14.5491 23.8845L9.14083 23.8701V24.0594ZM0.03475 25.2469C0.0146278 25.2899 0.00789743 25.4359 0.0197098 25.5714L0.0412057 25.8177L3.67281 25.8323L7.30442 25.8469L7.25703 25.5533C7.231 25.3919 7.19419 25.2393 7.17537 25.2142C7.15656 25.1892 5.55036 25.1687 3.6062 25.1687C0.657096 25.1687 0.0651736 25.1817 0.03475 25.2469ZM9.32893 25.9443C9.31437 25.9678 9.32014 26.2409 9.34177 26.5513L9.38119 27.1156H14.6693H19.9574V26.5231V25.9305L14.6564 25.9161C11.7409 25.9081 9.34356 25.9208 9.32893 25.9443ZM0.0206026 27.5242L0.0412057 27.8492H3.74973H7.45825V27.5388V27.2285L3.72913 27.2138L0 27.1993L0.0206026 27.5242ZM9.47734 27.9194C9.47356 27.9429 9.47521 28.1779 9.48112 28.4417C9.48695 28.7056 9.50756 28.9659 9.52692 29.0202C9.56009 29.1131 9.86976 29.1189 14.7792 29.1189H19.9964L19.9769 28.5123L19.9574 27.9056L14.7208 27.8912C11.8407 27.8832 9.48112 27.8959 9.47734 27.9194ZM0.0207404 29.5281L0.0412057 29.8808H3.85274H7.66428L7.68708 29.7167C7.69958 29.6264 7.69045 29.4677 7.66675 29.364L7.62369 29.1754H3.81202H0.000343193L0.0207404 29.5281ZM9.62252 30.4028C9.623 30.6433 9.64209 30.8973 9.66483 30.9671L9.70624 31.0941H14.849H19.9917V30.5297V29.9654H14.8066H9.62156L9.62252 30.4028ZM0.0208777 31.5314L0.0412057 31.9123H3.95576H7.87031L7.89064 31.5314L7.9109 31.1505H3.95576H0.000617748L0.0208777 31.5314ZM9.78185 32.0293C9.75884 32.0785 9.75699 32.3219 9.77766 32.5701C9.7984 32.8184 9.8258 33.0297 9.83865 33.0397C9.85142 33.0496 12.1025 33.0636 14.841 33.0706C17.5794 33.0776 19.8598 33.0802 19.9083 33.0763C19.9752 33.0709 19.9919 32.9354 19.977 32.519L19.9574 31.9688L14.8905 31.9543C10.3177 31.9412 9.81955 31.9485 9.78185 32.0293ZM0.0351624 33.2029C0.0153149 33.2454 0.00851582 33.4168 0.0201221 33.5838L0.0412057 33.8874H4.09311H8.14502L8.12153 33.5771C8.10862 33.4064 8.06625 33.235 8.02731 33.1961C7.97216 33.1412 7.08445 33.1256 4.01386 33.1256C0.740056 33.1256 0.0651053 33.1387 0.0351624 33.2029ZM9.94056 34.0109C9.91412 34.0326 9.91027 34.2042 9.93198 34.3922C9.95375 34.5801 9.98692 34.8166 10.0057 34.9177L10.04 35.1015L14.9987 35.087L19.9574 35.0725V34.5364V34.0003L14.973 33.9859C12.2317 33.9778 9.96707 33.9891 9.94056 34.0109ZM0.0531556 35.1943C0.0277454 35.2153 0.00686753 35.3932 0.00686753 35.5898V35.9472L4.17896 35.9473L8.35105 35.9473L8.31671 35.5663L8.28237 35.1854L4.19091 35.1708C1.94066 35.1628 0.0786346 35.1734 0.0531556 35.1943ZM10.1362 36.5256C10.1629 36.8127 10.2066 37.0669 10.2333 37.0904C10.26 37.1138 12.4588 37.1265 15.1196 37.1186L19.9574 37.1041L19.977 36.5539L19.9966 36.0036H15.0422H10.0877L10.1362 36.5256ZM0.0353683 37.2091C0.0155895 37.2514 0.00885909 37.4355 0.020328 37.6183L0.0412057 37.9505H4.29914H8.55708L8.54952 37.6309C8.54533 37.455 8.52308 37.2709 8.50014 37.2217C8.46265 37.1414 8.02895 37.1323 4.2648 37.1323C0.789435 37.1323 0.0651052 37.1454 0.0353683 37.2091ZM10.2858 38.0771C10.2687 38.1006 10.2745 38.3357 10.2986 38.5995L10.3427 39.0792H15.15H19.9574V38.5713V38.0634L15.1372 38.0489C12.486 38.041 10.303 38.0536 10.2858 38.0771ZM0.038871 39.1767C0.0173753 39.2227 0.00913368 39.4227 0.020534 39.6212L0.0412057 39.9821L4.42633 39.9966L8.81145 40.0112L8.76242 39.6016C8.73543 39.3764 8.70912 39.1884 8.70391 39.184C8.69869 39.1795 6.75569 39.1572 4.38622 39.1344C0.610533 39.0981 0.0731405 39.1033 0.038871 39.1767ZM10.4457 40.5482C10.4457 40.8838 10.4717 41.0364 10.5315 41.0519C10.5788 41.0642 12.688 41.0857 15.2187 41.0998C17.7494 41.114 19.8587 41.1137 19.9058 41.0993C19.9657 41.0811 19.9917 40.9209 19.9917 40.57V40.0667H15.2187H10.4457V40.5482ZM0.0526747 41.1766C0.0274704 41.1973 0.00686753 41.3877 0.00686753 41.5998V41.9854H4.50517H9.00347V41.6713C9.00347 41.4986 8.97147 41.3081 8.93239 41.2481C8.86323 41.1419 8.74133 41.139 4.47983 41.139C2.07011 41.139 0.0778102 41.1559 0.0526747 41.1766ZM10.6123 42.117C10.5928 42.1587 10.586 42.3938 10.5971 42.6394L10.6174 43.0859L15.3071 43.1004L19.9968 43.1149L19.9771 42.5925L19.9574 42.0701L15.3025 42.0556C11.4539 42.0436 10.6416 42.0542 10.6123 42.117ZM0.00686753 43.5938C0.00686753 43.8921 0.0322091 44.0185 0.092713 44.022C0.139962 44.0247 2.21275 44.027 4.69897 44.0273C7.1852 44.0275 9.23581 44.0142 9.25579 43.9978C9.27577 43.9814 9.25524 43.7885 9.21026 43.5692L9.12839 43.1705H4.56767H0.00686753V43.5938ZM10.7572 44.1266C10.7349 44.1563 10.7373 44.385 10.7627 44.6349L10.8088 45.0892H15.4029H19.997L19.9772 44.5954L19.9574 44.1016L15.3775 44.0871C12.518 44.078 10.7825 44.0929 10.7572 44.1266ZM0.0211522 45.583L0.0412057 46.0203H4.74554H9.44987L9.42563 45.6253C9.4123 45.408 9.38731 45.2113 9.37007 45.188C9.35283 45.1646 7.2378 45.1456 4.66992 45.1456H0.00109874L0.0211522 45.583ZM10.9274 46.4573C10.9279 46.6515 10.9469 46.8675 10.9697 46.9373L11.0111 47.0643H15.5042H19.9973L19.9773 46.5988L19.9574 46.1332L15.4419 46.1187L10.9264 46.1042L10.9274 46.4573ZM0.0356428 47.1969C0.0161388 47.2388 0.00933963 47.4483 0.0206712 47.6624L0.0412057 48.0519L4.87561 48.0664L9.71001 48.0809L9.66586 47.6902C9.64154 47.4753 9.60288 47.2593 9.57994 47.2101C9.54238 47.1298 9.06034 47.1208 4.80474 47.1208C0.895608 47.1208 0.0650363 47.134 0.0356428 47.1969ZM11.0927 48.5739C11.119 48.8144 11.1638 49.0305 11.192 49.054C11.2202 49.0775 13.204 49.0902 15.6004 49.0822L19.9574 49.0677L19.9773 48.6021L19.9973 48.1365H15.5211H11.0448L11.0927 48.5739ZM0.0526747 49.1899C0.0274704 49.2106 0.00686753 49.4138 0.00686753 49.6414V50.0552H4.95157H9.89627L9.8953 49.7307C9.89482 49.5522 9.87573 49.3491 9.853 49.2793L9.81159 49.1523H4.955C2.2839 49.1523 0.0778102 49.1692 0.0526747 49.1899ZM11.2326 50.5486C11.2653 50.8491 11.315 51.0085 11.3911 51.0569C11.4771 51.1116 12.4375 51.1273 15.661 51.1266C17.9485 51.1261 19.86 51.1049 19.9089 51.0793C19.9725 51.0462 19.9921 50.9055 19.9776 50.5864L19.9574 50.1399L15.5711 50.1254L11.1849 50.1108L11.2326 50.5486ZM0.0526747 51.1651C0.0274704 51.1857 0.00686753 51.3741 0.00686753 51.5837C0.00686753 51.7932 0.0256163 52.0048 0.0485542 52.0539C0.0860515 52.1342 0.586564 52.1431 5.01042 52.1424C7.72863 52.1418 9.97339 52.1192 10.0262 52.0917C10.0987 52.054 10.1135 51.947 10.0875 51.6489C10.0687 51.4326 10.0316 51.2268 10.005 51.1915C9.96975 51.1446 8.63392 51.1274 5.02766 51.1274C2.31659 51.1274 0.0778102 51.1444 0.0526747 51.1651ZM11.4359 52.2193C11.4164 52.2612 11.4096 52.4707 11.4209 52.6849L11.4415 53.0743H15.6994H19.9574L19.9777 52.6561C19.9922 52.3596 19.9722 52.2243 19.9091 52.1913C19.8601 52.1658 17.9416 52.1446 15.6458 52.1441C12.2053 52.1434 11.4652 52.1566 11.4359 52.2193ZM0.0530865 53.1398C0.0276762 53.1607 0.00686753 53.3894 0.00686753 53.6481V54.1183H5.16027H10.3137L10.2938 53.6245L10.274 53.1308L5.18665 53.1163C2.38863 53.1084 0.0784967 53.1189 0.0530865 53.1398ZM11.5788 54.2313C11.5553 54.2624 11.5575 54.4658 11.5836 54.6832L11.631 55.0785L15.7942 55.064L19.9574 55.0495L19.9774 54.6121L19.9975 54.1748H15.8094C13.0855 54.1748 11.6064 54.1945 11.5788 54.2313ZM0.0358488 55.2099C0.0163447 55.2516 0.00961479 55.4738 0.020809 55.7037L0.0412057 56.1217H5.29495H10.5487L10.5297 55.7549C10.5192 55.5531 10.4954 55.3309 10.4769 55.2611L10.4431 55.1341H5.25718C0.979119 55.1341 0.0650362 55.1474 0.0358488 55.2099ZM11.7648 56.6432L11.7849 57.081H15.8711H19.9574V56.6578V56.2345L15.8511 56.22L11.7448 56.2054L11.7648 56.6432ZM0.0213581 57.6594L0.0412057 58.1532L5.35978 58.1677C8.28498 58.1756 10.698 58.1629 10.722 58.1394C10.746 58.116 10.7522 57.8873 10.7357 57.6312L10.7058 57.1657H5.35367H0.00151057L0.0213581 57.6594ZM11.8879 58.6329V59.0843H15.9398H19.9917V58.6671C19.9917 58.3388 19.9685 58.2427 19.883 58.2157C19.8233 58.1968 17.9999 58.1814 15.8311 58.1814H11.8879V58.6329ZM0.00686753 59.6487V60.1566H5.51087H11.0149L10.9682 59.6964C10.9425 59.4433 10.9053 59.2148 10.8855 59.1885C10.8658 59.1623 8.41004 59.1408 5.42825 59.1408H0.00686753V59.6487ZM12.0252 60.5469C12.0252 60.7306 12.044 60.9211 12.0669 60.9702C12.1043 61.0502 12.5194 61.0595 16.0501 61.0595H19.9917V60.6705C19.9917 60.3678 19.9676 60.2739 19.883 60.2472C19.8233 60.2284 18.0308 60.213 15.8998 60.213H12.0252V60.5469ZM0.0362611 61.1908C0.0168257 61.2324 0.0100267 61.4802 0.0210836 61.7414L0.0412057 62.2163H5.63833C11.1954 62.2163 11.2353 62.2155 11.2182 62.1035C11.2087 62.0414 11.1778 61.8001 11.1495 61.5674L11.0981 61.1441L5.58483 61.1297C1.02884 61.1178 0.0654486 61.1284 0.0362611 61.1908ZM12.1859 62.3323C12.1631 62.3812 12.1627 62.547 12.1848 62.701C12.207 62.8549 12.2438 63.0056 12.2666 63.0359C12.2927 63.0707 13.6941 63.0907 16.064 63.0902C18.1298 63.0897 19.8602 63.0683 19.9094 63.0427C19.9715 63.0103 19.9924 62.8856 19.9781 62.6344L19.9574 62.2728L16.0924 62.2582C12.6303 62.2451 12.2231 62.2528 12.1859 62.3323ZM0.0359866 63.223C0.0165511 63.2645 0.00982074 63.4994 0.0209463 63.745L0.0412057 64.1914L5.72417 64.2059L11.4071 64.2203V63.8286C11.4071 63.6132 11.377 63.3718 11.3402 63.2922L11.2732 63.1474H5.67219C1.05748 63.1474 0.0650367 63.1608 0.0359866 63.223ZM12.415 64.3132C12.3895 64.3342 12.369 64.455 12.3696 64.5818C12.3701 64.7085 12.3892 64.8695 12.4121 64.9396L12.4536 65.0671L16.2055 65.0525L19.9574 65.0379V64.6711V64.3043L16.2093 64.2897C14.1479 64.2817 12.4404 64.2923 12.415 64.3132ZM0.0526747 65.1602C0.0274704 65.1809 0.00686753 65.4348 0.00686753 65.7245V66.2512H5.85308H11.6993L11.6562 65.9691C11.6325 65.8139 11.5938 65.5599 11.5701 65.4047L11.5271 65.1226H5.8127C2.66986 65.1226 0.0778102 65.1395 0.0526747 65.1602ZM12.551 66.6321C12.5702 66.8106 12.5979 66.9884 12.6126 67.0272C12.6333 67.0824 13.4125 67.0977 16.2067 67.0977C18.169 67.0977 19.8233 67.0823 19.883 67.0634C19.9664 67.0371 19.9917 66.9453 19.9917 66.6684V66.3076H16.2538H12.5159L12.551 66.6321ZM0.0361925 67.1727C0.0169631 67.2139 0.010164 67.4663 0.0212209 67.7335L0.0412057 68.2193L5.8217 68.2563C9.00093 68.2766 11.6648 68.2769 11.7415 68.2569C11.8715 68.223 11.8781 68.1883 11.8406 67.7297C11.8186 67.4597 11.77 67.2071 11.7328 67.1682C11.6795 67.1128 10.4238 67.0977 5.86812 67.0977C1.10988 67.0977 0.0649679 67.1111 0.0361925 67.1727ZM12.726 68.6632L12.7463 69.0446L16.2145 69.0602C18.122 69.0688 19.7537 69.0617 19.8404 69.0444C19.9868 69.0151 19.9967 68.9878 19.9777 68.6619L19.9574 68.311L16.3315 68.2964L12.7057 68.2818L12.726 68.6632ZM0.0526747 69.1105C0.0274704 69.1311 0.00686753 69.4104 0.00686753 69.7312V70.3143H6.05039H12.0939V70.0528C12.0939 69.9089 12.0576 69.6296 12.0134 69.432L11.9328 69.0728H6.01564C2.7612 69.0728 0.0778102 69.0897 0.0526747 69.1105ZM12.8631 70.6952L12.8837 71.0197L16.4377 71.0343L19.9917 71.049V70.7099V70.3708H16.4171H12.8425L12.8631 70.6952ZM0.0526747 71.142C0.0274704 71.1627 0.00686753 71.4293 0.00686753 71.7345V72.2894H6.16377H12.3207L12.277 71.7431C12.2495 71.399 12.2011 71.1799 12.1464 71.1514C12.0986 71.1265 9.36835 71.1057 6.07903 71.1052C2.7897 71.1048 0.0778102 71.1213 0.0526747 71.142ZM13.0331 72.383C13.0076 72.4039 12.9867 72.5692 12.9867 72.7503V73.0795H16.4925H19.9982L19.9778 72.7268L19.9574 72.3741L16.5185 72.3595C14.627 72.3514 13.0587 72.362 13.0331 72.383ZM0.0216327 73.7143L0.0412057 74.2928L6.27359 74.3072C11.2337 74.3186 12.5076 74.3071 12.5139 74.2507C12.5182 74.2118 12.5201 74.1418 12.5181 74.0953C12.516 74.0487 12.4944 73.8138 12.47 73.5733L12.4255 73.1359H6.21384H0.00206021L0.0216327 73.7143ZM13.1705 74.4192C13.1534 74.4428 13.1553 74.5954 13.1747 74.7583L13.2102 75.0546H16.6044H19.9986L19.978 74.7301L19.9574 74.4056L16.5795 74.391C14.7217 74.383 13.1876 74.3957 13.1705 74.4192ZM0.0217019 75.7177L0.0412057 76.3243H6.39274H12.7443L12.7255 75.8729C12.7152 75.6246 12.69 75.3516 12.6696 75.2662L12.6324 75.111H6.31733H0.00219748L0.0217019 75.7177ZM13.3759 76.3902C13.3507 76.4108 13.3301 76.5108 13.3301 76.6123C13.3301 76.7137 13.3595 76.8603 13.3955 76.9381L13.461 77.0796L16.5524 77.0844C18.2526 77.0871 19.722 77.0731 19.8177 77.0534C19.9764 77.0206 19.9917 76.9914 19.9917 76.7193C19.9917 76.4994 19.9631 76.4121 19.883 76.3868C19.8233 76.368 18.345 76.3525 16.598 76.3525C14.8511 76.3525 13.401 76.3695 13.3759 76.3902ZM0.0901718 77.1338C0.0252039 77.1678 0.00700471 77.3357 0.0214954 77.768L0.0412057 78.3559H6.49678H12.9524L12.9296 77.8916C12.9172 77.6362 12.884 77.3569 12.856 77.2708L12.8051 77.1144L6.49184 77.1009C3.01956 77.0936 0.138795 77.1083 0.0901718 77.1338ZM13.5063 78.7086C13.5323 78.856 13.5669 78.9957 13.5832 79.019C13.5996 79.0422 15.0481 79.0613 16.8023 79.0613H19.9917V78.7509V78.4405H16.7254H13.459L13.5063 78.7086ZM0.0363984 79.1923C0.0172377 79.2333 0.0105072 79.519 0.0214268 79.8271L0.0412057 80.3874H6.5998H13.1584L13.1332 79.7949C13.1194 79.469 13.0944 79.1833 13.0776 79.16C13.0609 79.1368 10.1276 79.1177 6.55928 79.1177C1.24579 79.1177 0.0648991 79.1312 0.0363984 79.1923ZM13.6872 80.7396L13.7078 81.0646L16.6952 81.0803C18.3383 81.0889 19.7538 81.0818 19.8407 81.0644C19.9841 81.0357 19.9968 81.0055 19.978 80.7383L19.9574 80.4439L16.812 80.4292L13.6666 80.4145L13.6872 80.7396ZM0.0363984 81.1674C0.0172377 81.2084 0.0105072 81.4941 0.0214268 81.8022L0.0412057 82.3626L6.7298 82.377L13.4185 82.3913L13.3709 81.8241C13.3448 81.5122 13.3061 81.22 13.285 81.1749C13.2519 81.1039 12.3593 81.0928 6.659 81.0928C1.26282 81.0928 0.0649678 81.1063 0.0363984 81.1674ZM13.8384 82.5259C13.8182 82.5692 13.8114 82.7025 13.8234 82.8222L13.8452 83.0397L16.7639 83.0554C18.3692 83.0641 19.7521 83.0572 19.8372 83.0403C19.9681 83.0141 19.9917 82.9717 19.9917 82.7626C19.9917 82.5895 19.9592 82.5054 19.883 82.4815C19.8233 82.4626 18.4471 82.4472 16.8248 82.4472C14.3651 82.4472 13.8691 82.4603 13.8384 82.5259ZM0.0530179 83.1053C0.0276076 83.1261 0.00686753 83.431 0.00686753 83.7828V84.4223H6.84779H13.6888L13.6383 84.2107C13.6105 84.0943 13.5685 83.7959 13.5448 83.5476L13.5018 83.0962L6.80047 83.0818C3.11468 83.0739 0.0783594 83.0844 0.0530179 83.1053ZM13.9489 84.5493C13.9493 84.5881 13.9689 84.7153 13.9924 84.8321L14.035 85.0443L16.9962 85.0296L19.9574 85.0149L19.9783 84.7468L19.9992 84.4788H16.9737C14.5987 84.4788 13.9483 84.4939 13.9489 84.5493ZM0.0366043 85.1736C0.0174436 85.2146 0.0106446 85.5132 0.0214954 85.837L0.0412057 86.4257H6.93707H13.8329L13.8159 86.0024C13.8066 85.7696 13.7779 85.4776 13.7522 85.3535L13.7055 85.1277L6.88851 85.1133C1.28679 85.1015 0.0652424 85.1123 0.0366043 85.1736ZM14.1542 86.7576C14.1542 86.9321 14.1865 87.0163 14.2628 87.0404C14.3226 87.0592 15.5974 87.0742 17.0957 87.0738C18.5941 87.0733 19.8608 87.0517 19.9106 87.0257C19.9674 86.9961 19.993 86.8964 19.9793 86.7585L19.9574 86.5385L17.0558 86.5238L14.1542 86.5091V86.7576ZM0.0218391 87.7941L0.0412057 88.4572L7.07188 88.4716L14.1026 88.4859L14.0601 88.1612C14.0368 87.9826 13.9978 87.6778 13.9735 87.4838L13.9294 87.1311H6.96591H0.00254068L0.0218391 87.7941ZM14.3488 88.5476C14.3121 88.5663 14.2919 88.6806 14.304 88.8016L14.3259 89.0215L17.1588 89.0363L19.9917 89.051V88.7977V88.5443L17.2036 88.529C15.6702 88.5205 14.3856 88.5289 14.3488 88.5476ZM0.00686753 89.7834V90.4606H7.15505H14.3033L14.2608 90.0232C14.2374 89.7826 14.202 89.478 14.1821 89.346L14.1458 89.1062H7.07634H0.00686753V89.7834ZM14.4421 90.7562L14.4632 90.9967L17.2315 91.0114L19.9997 91.0262L19.9785 90.7857L19.9574 90.5452L17.1891 90.5305L14.4209 90.5157L14.4421 90.7562ZM0.0526747 91.1189C0.0274704 91.1396 0.00686753 91.5713 0.00686753 92.0783V93H10.0034H20L19.9786 92.7884L19.9574 92.5768L17.2446 92.5485L14.5319 92.5203L14.5156 92.2946C14.5066 92.1704 14.462 91.8467 14.4165 91.5751L14.3336 91.0813H7.21603C3.30134 91.0813 0.0778102 91.0982 0.0526747 91.1189Z" fill="#131930"/>
</svg>
